<svg xmlns="http://www.w3.org/2000/svg" xmlns:xlink="http://www.w3.org/1999/xlink" width="40" zoomAndPan="magnify" viewBox="0 0 30 30.000001" height="40" preserveAspectRatio="xMidYMid meet" version="1.0"><defs><clipPath id="114fc1a73c"><path d="M 0.484375 1.105469 L 29.515625 1.105469 L 29.515625 27.960938 L 0.484375 27.960938 Z M 0.484375 1.105469 " clip-rule="nonzero"/></clipPath></defs><g clip-path="url(#114fc1a73c)"><path fill="#202022" d="M 28.886719 13.890625 C 29.164062 13.113281 29.355469 12.320312 29.199219 11.488281 C 29.109375 10.992188 28.964844 10.519531 28.605469 10.140625 C 28.46875 10 28.335938 9.855469 28.203125 9.714844 C 28.007812 9.507812 27.894531 9.269531 27.847656 8.988281 C 27.78125 8.605469 27.710938 8.21875 27.597656 7.847656 C 27.5 7.523438 27.476562 7.203125 27.484375 6.875 C 27.492188 6.65625 27.515625 6.441406 27.523438 6.226562 C 27.542969 5.78125 27.558594 5.335938 27.445312 4.898438 C 27.582031 4.914062 27.695312 4.929688 27.808594 4.933594 C 27.914062 4.9375 27.992188 4.875 28.023438 4.777344 C 28.066406 4.652344 28.035156 4.484375 27.957031 4.433594 C 27.796875 4.328125 27.640625 4.21875 27.46875 4.136719 C 27.003906 3.910156 26.5 3.808594 25.996094 3.707031 C 25.453125 3.59375 24.902344 3.503906 24.390625 3.28125 C 23.957031 3.097656 23.511719 2.96875 23.050781 2.878906 C 22.636719 2.792969 22.222656 2.714844 21.816406 2.601562 C 21.503906 2.511719 21.207031 2.371094 20.898438 2.257812 C 20.5625 2.136719 20.222656 2.011719 19.878906 1.914062 C 19.375 1.773438 18.875 1.628906 18.363281 1.539062 C 17.839844 1.453125 17.308594 1.421875 16.777344 1.386719 C 16.023438 1.335938 15.269531 1.296875 14.515625 1.277344 C 13.878906 1.257812 13.242188 1.28125 12.605469 1.273438 C 11.808594 1.265625 11.019531 1.304688 10.234375 1.421875 C 9.71875 1.503906 9.203125 1.59375 8.695312 1.710938 C 8.230469 1.824219 7.761719 1.945312 7.316406 2.121094 C 6.585938 2.410156 5.917969 2.828125 5.269531 3.269531 C 4.679688 3.675781 4.09375 4.09375 3.507812 4.503906 C 3.296875 4.652344 3.066406 4.777344 2.882812 4.953125 C 2.449219 5.367188 2.09375 5.84375 1.800781 6.367188 C 1.484375 6.945312 1.261719 7.554688 1.242188 8.222656 C 1.230469 8.644531 1.136719 9.042969 0.984375 9.433594 C 0.816406 9.863281 0.710938 10.304688 0.746094 10.773438 C 0.753906 10.894531 0.742188 11.019531 0.734375 11.144531 C 0.707031 11.683594 0.667969 12.21875 0.65625 12.753906 C 0.644531 13.1875 0.769531 13.597656 0.886719 14.011719 C 0.984375 14.355469 1.074219 14.707031 1.160156 15.054688 C 1.203125 15.230469 1.191406 15.425781 1.261719 15.589844 C 1.617188 16.433594 1.996094 17.269531 2.359375 18.113281 C 2.480469 18.390625 2.609375 18.664062 2.785156 18.910156 C 2.847656 18.996094 2.902344 19.085938 2.949219 19.175781 C 3.277344 19.8125 3.617188 20.441406 3.929688 21.082031 C 4.40625 22.058594 5.0625 22.878906 5.925781 23.539062 C 6.363281 23.871094 6.835938 24.144531 7.316406 24.410156 C 8.457031 25.042969 9.621094 25.621094 10.902344 25.941406 C 11.476562 26.085938 12.023438 26.332031 12.589844 26.515625 C 13.125 26.6875 13.660156 26.867188 14.207031 26.996094 C 14.609375 27.089844 15.015625 27.152344 15.398438 27.324219 C 16.089844 27.636719 16.816406 27.808594 17.582031 27.78125 C 17.992188 27.769531 18.402344 27.742188 18.8125 27.710938 C 19.195312 27.683594 19.578125 27.640625 19.964844 27.609375 C 20.085938 27.597656 20.191406 27.570312 20.289062 27.484375 C 20.589844 27.226562 20.933594 27.039062 21.328125 26.972656 C 21.878906 26.875 22.40625 26.695312 22.917969 26.460938 C 23.183594 26.339844 23.445312 26.195312 23.726562 26.121094 C 24.316406 25.964844 24.898438 25.792969 25.460938 25.554688 C 26.316406 25.191406 27.105469 24.730469 27.707031 23.996094 C 27.929688 23.722656 28.121094 23.425781 28.203125 23.082031 C 28.386719 22.316406 28.445312 21.53125 28.472656 20.746094 C 28.5 19.957031 28.484375 19.164062 28.511719 18.371094 C 28.527344 17.96875 28.449219 17.597656 28.292969 17.234375 C 28.230469 17.082031 28.171875 16.925781 28.117188 16.769531 C 28.023438 16.496094 28.011719 16.222656 28.121094 15.945312 C 28.382812 15.261719 28.640625 14.578125 28.886719 13.890625 Z M 28.886719 13.890625 " fill-opacity="1" fill-rule="nonzero"/><path fill="#12f7ff" d="M 9.910156 20.457031 C 9.5625 20.167969 9.34375 19.820312 9.359375 19.339844 C 9.367188 19.046875 9.328125 18.75 9.296875 18.457031 C 9.269531 18.214844 9.179688 17.992188 9.007812 17.8125 C 8.820312 17.609375 8.632812 17.40625 8.433594 17.214844 C 8.035156 16.832031 7.628906 16.460938 7.238281 16.074219 C 7.066406 15.90625 6.929688 15.707031 6.761719 15.535156 C 6.601562 15.371094 6.394531 15.3125 6.148438 15.34375 C 6.175781 15.390625 6.191406 15.429688 6.210938 15.464844 C 6.476562 15.933594 6.859375 16.296875 7.242188 16.664062 C 7.628906 17.039062 8.019531 17.410156 8.394531 17.792969 C 8.71875 18.125 8.875 18.527344 8.875 18.996094 C 8.875 19.171875 8.894531 19.347656 8.890625 19.523438 C 8.886719 19.929688 9.027344 20.261719 9.355469 20.511719 C 9.886719 20.90625 10.410156 21.308594 10.941406 21.695312 C 11.867188 22.367188 12.828125 22.988281 13.878906 23.449219 C 14.015625 23.507812 14.15625 23.5625 14.292969 23.621094 C 14.300781 23.605469 14.3125 23.589844 14.324219 23.574219 C 14.097656 23.371094 13.894531 23.140625 13.648438 22.976562 C 13.132812 22.628906 12.601562 22.300781 12.066406 21.992188 C 11.296875 21.546875 10.589844 21.023438 9.910156 20.457031 Z M 15.3125 18.796875 C 15.820312 19.054688 16.351562 19.269531 16.878906 19.484375 C 17.15625 19.597656 17.449219 19.675781 17.734375 19.769531 C 17.742188 19.757812 17.746094 19.746094 17.753906 19.734375 C 17.019531 18.839844 16.117188 18.167969 15.046875 17.722656 C 13.949219 17.265625 12.816406 17.117188 11.636719 17.355469 C 11.675781 17.394531 11.714844 17.429688 11.757812 17.441406 C 12.011719 17.511719 12.261719 17.601562 12.523438 17.640625 C 12.925781 17.703125 13.332031 17.726562 13.738281 17.773438 C 13.886719 17.792969 14.027344 17.84375 14.175781 17.878906 L 14.167969 17.910156 C 13.585938 17.96875 12.992188 17.96875 12.472656 18.308594 C 12.535156 18.3125 12.597656 18.320312 12.660156 18.320312 C 12.941406 18.332031 13.222656 18.34375 13.503906 18.355469 C 14.132812 18.386719 14.738281 18.511719 15.3125 18.796875 Z M 27.542969 12.515625 C 27.390625 12.09375 27.203125 11.683594 27.046875 11.265625 C 26.929688 10.953125 26.726562 10.722656 26.457031 10.542969 C 25.890625 10.164062 25.253906 10.027344 24.582031 10.03125 C 24.183594 10.035156 23.785156 10.089844 23.429688 10.28125 C 22.699219 10.679688 22.171875 11.269531 21.820312 12.019531 C 21.53125 12.625 21.4375 13.269531 21.4375 13.933594 C 21.441406 14.605469 21.46875 15.277344 21.484375 15.953125 C 21.496094 16.460938 21.460938 16.96875 21.335938 17.464844 C 21.183594 18.0625 21.027344 18.660156 20.894531 19.261719 C 20.695312 20.167969 20.628906 21.082031 20.773438 22.007812 C 20.875 22.644531 21.183594 23.132812 21.730469 23.472656 C 22.347656 23.855469 23.019531 24.023438 23.746094 24.046875 C 24.019531 24.011719 24.292969 23.988281 24.5625 23.933594 C 24.882812 23.871094 25.207031 23.78125 25.445312 23.5625 C 25.722656 23.304688 25.976562 23.023438 26.199219 22.71875 C 26.738281 21.972656 26.996094 21.125 27.0625 20.214844 C 27.09375 19.789062 26.976562 19.382812 26.796875 19.007812 C 26.523438 18.417969 26.417969 17.800781 26.441406 17.160156 C 26.453125 16.734375 26.566406 16.328125 26.746094 15.945312 C 26.953125 15.503906 27.164062 15.066406 27.390625 14.636719 C 27.753906 13.949219 27.804688 13.242188 27.542969 12.515625 Z M 23.800781 10.839844 C 23.945312 10.628906 24.171875 10.636719 24.378906 10.625 C 24.910156 10.59375 25.425781 10.660156 25.890625 10.945312 C 26.179688 11.125 26.367188 11.367188 26.332031 11.734375 C 26.328125 11.746094 26.324219 11.757812 26.320312 11.777344 C 25.371094 11.527344 24.402344 11.414062 23.378906 11.433594 C 23.53125 11.222656 23.671875 11.035156 23.800781 10.839844 Z M 25.695312 12.632812 L 24.996094 12.632812 C 25.117188 12.394531 25.230469 12.066406 25.34375 11.742188 C 25.355469 11.742188 25.371094 11.6875 25.382812 11.6875 C 25.484375 12.015625 25.585938 12.394531 25.695312 12.632812 Z M 24.699219 12.867188 C 24.289062 12.820312 23.917969 12.78125 23.5 12.734375 C 23.808594 12.355469 24.09375 12.003906 24.378906 11.652344 C 24.394531 11.65625 24.410156 11.660156 24.425781 11.664062 C 24.515625 12.058594 24.605469 12.453125 24.699219 12.867188 Z M 23.238281 11.800781 L 23.238281 12.632812 L 22.371094 12.632812 C 22.316406 12.394531 22.765625 11.992188 23.238281 11.800781 Z M 21.695312 19.15625 C 21.726562 19.039062 21.777344 19.007812 21.894531 19.015625 C 22.222656 19.039062 22.550781 19.035156 22.878906 19.0625 C 23.640625 19.128906 24.320312 19.398438 24.886719 19.921875 C 25.140625 20.15625 25.363281 20.425781 25.59375 20.695312 C 24.199219 20.796875 22.8125 20.8125 21.417969 20.769531 C 21.464844 20.214844 21.550781 19.679688 21.695312 19.15625 Z M 24.660156 21.226562 C 24.644531 21.675781 24.632812 22.105469 24.617188 22.566406 C 24.492188 22.484375 24.386719 22.417969 24.285156 22.347656 C 24.261719 22.328125 24.246094 22.292969 24.238281 22.261719 C 24.183594 21.9375 24.132812 21.609375 24.078125 21.269531 C 24.285156 21.253906 24.46875 21.242188 24.660156 21.226562 Z M 23.472656 21.007812 L 23.472656 22.007812 C 23.472656 22 23.160156 21.996094 22.976562 21.980469 C 22.953125 21.976562 22.953125 21.820312 22.949219 21.789062 C 22.914062 21.566406 22.914062 21.480469 22.878906 21.007812 Z M 21.324219 21.242188 L 22.425781 21.242188 C 22.347656 21.480469 22.265625 21.9375 22.179688 22.316406 C 21.808594 22.007812 21.527344 21.480469 21.324219 21.242188 Z M 24.378906 23.320312 C 23.699219 23.46875 23.035156 23.445312 22.40625 23.125 C 22.183594 23.011719 22.003906 22.851562 21.871094 22.621094 C 22.28125 22.542969 22.664062 22.347656 23.089844 22.398438 C 23.230469 22.417969 23.371094 22.472656 23.507812 22.523438 C 24.089844 22.722656 24.683594 22.820312 25.296875 22.828125 C 25.316406 22.828125 25.335938 22.828125 25.390625 22.832031 C 25.078125 23.097656 24.742188 23.238281 24.378906 23.320312 Z M 25.566406 22.1875 C 25.21875 21.867188 25.132812 21.480469 25.113281 21.007812 L 26.105469 21.007812 C 25.988281 21.480469 25.785156 21.796875 25.566406 22.1875 Z M 26.785156 14.09375 C 26.609375 14.527344 26.410156 14.953125 26.203125 15.375 C 26 15.796875 25.777344 16.210938 25.675781 16.675781 C 25.535156 17.328125 25.609375 17.960938 25.835938 18.585938 C 25.988281 19.015625 26.117188 19.453125 26.242188 19.894531 C 26.3125 20.144531 26.304688 20.40625 26.265625 20.699219 C 26.011719 20.433594 25.777344 20.191406 25.546875 19.945312 C 24.921875 19.28125 24.167969 18.859375 23.25 18.753906 C 22.785156 18.699219 22.316406 18.652344 21.839844 18.601562 C 21.859375 18.535156 21.878906 18.457031 21.902344 18.378906 C 22.0625 17.855469 22.035156 17.320312 22.089844 16.78125 C 22.203125 15.714844 22.027344 14.644531 22.027344 13.578125 L 22.027344 13.230469 C 23.949219 13.207031 25.242188 13.210938 26.800781 13.246094 C 26.828125 13.542969 26.894531 13.832031 26.785156 14.09375 Z M 26.160156 12.875 C 26.285156 12.613281 26.394531 12.375 26.519531 12.113281 C 26.664062 12.355469 26.796875 12.574219 26.941406 12.816406 C 26.671875 12.835938 26.433594 12.855469 26.160156 12.875 Z M 29.042969 13.886719 C 29.324219 13.097656 29.515625 12.296875 29.359375 11.453125 C 29.269531 10.953125 29.121094 10.472656 28.757812 10.09375 C 28.621094 9.949219 28.484375 9.804688 28.351562 9.660156 C 28.15625 9.453125 28.042969 9.210938 27.992188 8.925781 C 27.925781 8.535156 27.855469 8.148438 27.738281 7.773438 C 27.640625 7.445312 27.617188 7.121094 27.625 6.789062 C 27.632812 6.570312 27.65625 6.351562 27.664062 6.132812 C 27.683594 5.683594 27.699219 5.234375 27.585938 4.789062 C 27.722656 4.804688 27.839844 4.824219 27.953125 4.828125 C 28.0625 4.828125 28.136719 4.769531 28.171875 4.664062 C 28.214844 4.542969 28.183594 4.371094 28.101562 4.320312 C 27.941406 4.214844 27.78125 4.105469 27.609375 4.019531 C 27.136719 3.792969 26.628906 3.6875 26.121094 3.585938 C 25.570312 3.472656 25.015625 3.378906 24.496094 3.15625 C 24.058594 2.96875 23.609375 2.839844 23.144531 2.746094 C 22.722656 2.664062 22.304688 2.582031 21.894531 2.464844 C 21.578125 2.378906 21.277344 2.234375 20.964844 2.121094 C 20.625 2 20.28125 1.871094 19.933594 1.773438 C 19.425781 1.628906 18.917969 1.484375 18.398438 1.394531 C 17.871094 1.304688 17.335938 1.273438 16.800781 1.238281 C 16.035156 1.1875 15.273438 1.148438 14.507812 1.125 C 13.867188 1.109375 13.222656 1.132812 12.578125 1.125 C 11.773438 1.117188 10.972656 1.15625 10.179688 1.277344 C 9.660156 1.355469 9.140625 1.449219 8.625 1.570312 C 8.15625 1.679688 7.683594 1.804688 7.230469 1.980469 C 6.492188 2.273438 5.816406 2.695312 5.164062 3.144531 C 4.5625 3.554688 3.972656 3.976562 3.378906 4.390625 C 3.164062 4.539062 2.933594 4.667969 2.746094 4.847656 C 2.308594 5.265625 1.949219 5.746094 1.65625 6.277344 C 1.332031 6.859375 1.109375 7.476562 1.089844 8.152344 C 1.078125 8.578125 0.980469 8.980469 0.828125 9.375 C 0.65625 9.808594 0.550781 10.257812 0.585938 10.730469 C 0.59375 10.855469 0.582031 10.980469 0.574219 11.109375 C 0.546875 11.648438 0.507812 12.191406 0.496094 12.734375 C 0.484375 13.171875 0.609375 13.589844 0.726562 14.003906 C 0.828125 14.355469 0.917969 14.707031 1.003906 15.0625 C 1.046875 15.242188 1.039062 15.4375 1.105469 15.601562 C 1.46875 16.457031 1.851562 17.300781 2.21875 18.152344 C 2.339844 18.4375 2.472656 18.710938 2.652344 18.960938 C 2.710938 19.046875 2.765625 19.136719 2.816406 19.230469 C 3.148438 19.871094 3.488281 20.507812 3.808594 21.15625 C 4.289062 22.140625 4.949219 22.976562 5.824219 23.640625 C 6.265625 23.976562 6.742188 24.25 7.230469 24.519531 C 8.386719 25.164062 9.5625 25.746094 10.855469 26.070312 C 11.4375 26.21875 11.992188 26.464844 12.5625 26.652344 C 13.105469 26.824219 13.644531 27.003906 14.195312 27.136719 C 14.605469 27.234375 15.015625 27.292969 15.402344 27.46875 C 16.105469 27.78125 16.835938 27.960938 17.609375 27.933594 C 18.023438 27.917969 18.441406 27.890625 18.855469 27.859375 C 19.242188 27.832031 19.632812 27.789062 20.019531 27.753906 C 20.144531 27.746094 20.25 27.714844 20.351562 27.628906 C 20.652344 27.367188 21 27.179688 21.398438 27.113281 C 21.957031 27.015625 22.488281 26.832031 23.007812 26.597656 C 23.277344 26.472656 23.542969 26.324219 23.824219 26.25 C 24.421875 26.09375 25.011719 25.921875 25.578125 25.679688 C 26.441406 25.308594 27.242188 24.847656 27.851562 24.101562 C 28.074219 23.824219 28.265625 23.527344 28.351562 23.179688 C 28.539062 22.40625 28.597656 21.609375 28.625 20.816406 C 28.652344 20.015625 28.636719 19.214844 28.667969 18.414062 C 28.679688 18.007812 28.601562 17.632812 28.445312 17.265625 C 28.378906 17.113281 28.320312 16.953125 28.265625 16.796875 C 28.171875 16.515625 28.160156 16.242188 28.269531 15.960938 C 28.53125 15.269531 28.796875 14.582031 29.042969 13.886719 Z M 26.976562 7.734375 C 27.015625 8.160156 27.054688 8.582031 27.097656 9.027344 C 26.777344 8.929688 26.476562 8.839844 26.144531 8.738281 C 26.414062 8.382812 26.671875 8.050781 26.925781 7.714844 C 26.941406 7.722656 26.960938 7.726562 26.976562 7.734375 Z M 23.175781 4.566406 C 23.464844 4.546875 23.761719 4.550781 24.054688 4.578125 C 24.394531 4.609375 24.730469 4.675781 25.089844 4.730469 C 24.847656 4.882812 24.613281 5.015625 24.398438 5.175781 C 24.179688 5.335938 23.980469 5.523438 23.773438 5.699219 C 23.699219 5.765625 23.691406 5.820312 23.773438 5.894531 C 24.226562 6.296875 24.738281 6.488281 25.347656 6.367188 C 25.703125 6.296875 25.945312 6.03125 26.003906 5.636719 C 26.03125 5.464844 26.035156 5.292969 26.054688 5.105469 C 26.464844 5.433594 26.628906 5.859375 26.550781 6.351562 C 26.441406 7.019531 26.175781 7.625 25.683594 8.105469 C 25.4375 8.347656 25.128906 8.445312 24.78125 8.464844 C 24.410156 8.484375 24.039062 8.527344 23.667969 8.558594 C 23 8.617188 22.328125 8.714844 21.65625 8.636719 C 21.296875 8.59375 20.933594 8.558594 20.597656 8.394531 C 19.917969 8.058594 19.671875 7.148438 20.097656 6.515625 C 20.585938 5.796875 21.253906 5.296875 22.03125 4.933594 C 22.394531 4.761719 22.769531 4.601562 23.175781 4.566406 Z M 9.914062 2.269531 C 10.09375 2.195312 10.273438 2.125 10.453125 2.058594 C 10.628906 1.992188 10.808594 1.933594 10.984375 1.875 C 10.996094 1.878906 11.003906 1.882812 11.007812 1.886719 C 11.0625 2.078125 11.199219 2.085938 11.367188 2.074219 C 12.714844 2 14.066406 1.960938 15.417969 2.003906 C 16.722656 2.046875 18.015625 2.183594 19.285156 2.503906 C 19.320312 2.511719 19.351562 2.523438 19.394531 2.535156 C 19.144531 2.863281 18.914062 3.195312 18.65625 3.507812 C 18.519531 3.675781 18.3125 3.761719 18.097656 3.765625 C 17.519531 3.773438 16.945312 3.789062 16.367188 3.777344 C 15.433594 3.757812 14.503906 3.695312 13.582031 3.53125 C 13.101562 3.445312 12.628906 3.335938 12.15625 3.214844 C 11.765625 3.113281 11.378906 2.980469 10.992188 2.859375 C 10.992188 2.847656 10.992188 2.835938 10.992188 2.824219 C 11.105469 2.824219 11.214844 2.820312 11.328125 2.824219 C 12.125 2.863281 12.921875 2.910156 13.722656 2.9375 C 14.214844 2.953125 14.707031 2.933594 15.195312 2.933594 C 15.976562 2.9375 16.753906 2.9375 17.53125 2.957031 C 17.753906 2.960938 17.859375 2.816406 18.003906 2.707031 C 18 2.695312 17.996094 2.683594 17.996094 2.671875 C 17.660156 2.664062 17.328125 2.648438 16.992188 2.644531 C 15.796875 2.636719 14.601562 2.640625 13.410156 2.617188 C 12.867188 2.609375 12.328125 2.539062 11.785156 2.523438 C 11.050781 2.503906 10.3125 2.503906 9.578125 2.5 C 9.523438 2.496094 9.46875 2.5 9.40625 2.476562 C 9.574219 2.40625 9.746094 2.335938 9.914062 2.269531 Z M 22.328125 26.230469 C 21.855469 26.355469 21.375 26.425781 20.886719 26.410156 C 20.660156 26.40625 20.433594 26.371094 20.210938 26.339844 C 20.113281 26.328125 20.058594 26.339844 20.019531 26.441406 C 19.941406 26.628906 19.855469 26.8125 19.761719 26.988281 C 19.734375 27.039062 19.675781 27.097656 19.621094 27.109375 C 19.304688 27.171875 18.988281 27.234375 18.667969 27.269531 C 18.109375 27.335938 17.550781 27.320312 16.996094 27.238281 C 16.699219 27.195312 16.410156 27.082031 16.121094 26.980469 C 15.585938 26.792969 15.058594 26.574219 14.515625 26.402344 C 14.085938 26.265625 13.636719 26.191406 13.203125 26.0625 C 12.261719 25.78125 11.324219 25.492188 10.394531 25.179688 C 9.742188 24.960938 9.101562 24.710938 8.472656 24.441406 C 7.390625 23.972656 6.453125 23.292969 5.664062 22.414062 C 5.089844 21.773438 4.636719 21.042969 4.1875 20.316406 C 3.488281 19.183594 2.898438 17.996094 2.402344 16.765625 C 1.960938 15.667969 1.605469 14.546875 1.34375 13.394531 C 1.292969 13.160156 1.3125 12.910156 1.3125 12.664062 C 1.316406 11.574219 1.460938 10.5 1.710938 9.441406 C 1.90625 8.605469 2.15625 7.78125 2.417969 6.964844 C 2.585938 6.453125 2.917969 6.023438 3.285156 5.632812 C 3.890625 4.988281 4.605469 4.472656 5.347656 4.003906 C 5.742188 3.753906 6.140625 3.511719 6.542969 3.285156 C 6.816406 3.128906 7.117188 3.0625 7.433594 3.054688 C 8.339844 3.027344 9.242188 2.992188 10.144531 2.957031 C 10.21875 2.957031 10.292969 2.957031 10.375 2.980469 C 10.089844 3.105469 9.808594 3.226562 9.527344 3.355469 C 9.050781 3.570312 8.535156 3.65625 8.03125 3.785156 C 7.460938 3.9375 6.898438 4.097656 6.410156 4.46875 C 6.289062 4.5625 6.113281 4.589844 5.960938 4.652344 C 5.304688 4.917969 4.730469 5.3125 4.164062 5.726562 C 3.824219 5.972656 3.484375 6.21875 3.144531 6.464844 C 3.117188 6.484375 3.085938 6.507812 3.0625 6.546875 C 3.183594 6.519531 3.300781 6.492188 3.421875 6.460938 C 4.101562 6.292969 4.785156 6.242188 5.484375 6.3125 C 5.53125 6.316406 5.589844 6.292969 5.632812 6.265625 C 6.214844 5.878906 6.792969 5.480469 7.378906 5.097656 C 8.328125 4.476562 9.378906 4.113281 10.492188 3.914062 C 11.050781 3.8125 11.605469 3.695312 12.183594 3.582031 C 12.113281 3.789062 12.042969 3.996094 11.964844 4.222656 C 12.140625 4.203125 12.296875 4.1875 12.453125 4.171875 C 13.421875 4.074219 14.394531 4.085938 15.363281 4.097656 C 15.945312 4.105469 16.527344 4.128906 17.105469 4.136719 C 17.71875 4.144531 18.316406 4.03125 18.914062 3.90625 C 19.402344 3.808594 19.886719 3.707031 20.375 3.617188 C 20.992188 3.507812 21.605469 3.554688 22.21875 3.652344 C 22.425781 3.683594 22.632812 3.71875 22.882812 3.757812 C 22.722656 3.867188 22.601562 3.964844 22.464844 4.039062 C 22.046875 4.257812 21.625 4.472656 21.195312 4.675781 C 20.535156 4.980469 19.96875 5.398438 19.542969 5.996094 C 19.046875 6.703125 19.035156 7.59375 19.476562 8.335938 C 19.746094 8.78125 20.164062 8.953125 20.628906 9.042969 C 21.03125 9.121094 21.4375 9.167969 21.84375 9.226562 C 21.882812 9.234375 21.917969 9.246094 21.972656 9.257812 C 21.773438 9.550781 21.523438 9.765625 21.242188 9.945312 C 20.679688 10.296875 20.054688 10.476562 19.417969 10.636719 C 18.476562 10.875 17.519531 10.90625 16.554688 10.890625 C 15.992188 10.878906 15.429688 10.886719 14.867188 10.894531 C 14.703125 10.898438 14.535156 10.925781 14.371094 10.953125 C 14.554688 11.078125 14.761719 11.140625 14.976562 11.171875 C 15.230469 11.207031 15.484375 11.238281 15.742188 11.242188 C 16.328125 11.261719 16.917969 11.28125 17.507812 11.265625 C 17.9375 11.253906 18.367188 11.203125 18.796875 11.148438 C 19.347656 11.078125 19.898438 10.984375 20.472656 10.898438 C 20.375 11.019531 20.28125 11.121094 20.199219 11.230469 C 19.921875 11.597656 19.632812 11.953125 19.382812 12.335938 C 19.171875 12.652344 19.179688 13.027344 19.253906 13.386719 C 19.308594 13.648438 19.402344 13.902344 19.496094 14.152344 C 19.722656 14.785156 19.855469 15.429688 19.847656 16.101562 C 19.84375 16.585938 19.835938 17.070312 19.789062 17.550781 C 19.746094 17.992188 19.585938 18.40625 19.410156 18.8125 C 19.183594 19.328125 18.917969 19.828125 18.804688 20.382812 C 18.742188 20.691406 18.71875 21.007812 18.6875 21.320312 C 18.644531 21.746094 18.609375 22.171875 18.570312 22.621094 C 18.480469 22.5625 18.40625 22.511719 18.335938 22.457031 C 17.570312 21.910156 16.785156 21.394531 15.929688 20.996094 C 15.21875 20.667969 14.476562 20.425781 13.699219 20.339844 C 13.386719 20.304688 13.066406 20.378906 12.75 20.410156 C 12.652344 20.417969 12.554688 20.445312 12.457031 20.464844 C 12.457031 20.476562 12.457031 20.488281 12.457031 20.5 C 12.679688 20.550781 12.90625 20.605469 13.132812 20.652344 C 13.765625 20.777344 14.417969 20.847656 15.023438 21.082031 C 15.476562 21.257812 15.914062 21.472656 16.347656 21.691406 C 16.925781 21.984375 17.476562 22.324219 17.96875 22.746094 C 18.363281 23.082031 18.722656 23.453125 18.921875 23.9375 C 19.035156 24.207031 19.082031 24.5 19.167969 24.816406 C 19.011719 24.785156 18.890625 24.765625 18.769531 24.738281 C 17.65625 24.511719 16.527344 24.371094 15.390625 24.371094 C 14.761719 24.371094 14.191406 24.210938 13.617188 23.996094 C 12.683594 23.644531 11.792969 23.199219 10.914062 22.734375 C 10.386719 22.457031 9.832031 22.273438 9.28125 22.066406 C 8.875 21.910156 8.464844 21.746094 8.175781 21.40625 C 8 21.199219 7.859375 20.960938 7.714844 20.730469 C 7.058594 19.6875 6.441406 18.617188 5.945312 17.484375 C 5.730469 16.996094 5.570312 16.476562 5.394531 15.96875 C 5.253906 15.5625 5.097656 15.164062 4.855469 14.804688 C 4.832031 14.769531 4.808594 14.742188 4.765625 14.683594 C 4.546875 15.707031 4.867188 16.621094 5.175781 17.574219 C 4.898438 17.359375 4.667969 17.144531 4.5 16.886719 C 4.175781 16.382812 3.882812 15.863281 3.558594 15.359375 C 3.332031 15.007812 3.074219 14.675781 2.828125 14.335938 C 2.78125 14.269531 2.722656 14.21875 2.667969 14.160156 C 2.65625 14.164062 2.644531 14.167969 2.632812 14.171875 C 2.632812 14.214844 2.632812 14.257812 2.632812 14.296875 C 2.671875 14.933594 2.902344 15.507812 3.242188 16.03125 C 3.5625 16.53125 3.902344 17.019531 4.269531 17.484375 C 4.746094 18.089844 5.109375 18.75 5.40625 19.457031 C 5.636719 19.996094 5.871094 20.53125 6.222656 21.003906 C 6.648438 21.574219 7.164062 22.058594 7.695312 22.523438 C 8.566406 23.289062 9.589844 23.761719 10.667969 24.140625 C 12.566406 24.800781 14.519531 25.242188 16.484375 25.640625 C 17.484375 25.839844 18.488281 25.925781 19.507812 25.90625 C 19.636719 25.902344 19.6875 25.867188 19.683594 25.738281 C 19.679688 25.660156 19.695312 25.578125 19.703125 25.488281 C 19.464844 25.476562 19.238281 25.464844 19.011719 25.453125 C 18.246094 25.414062 17.472656 25.382812 16.734375 25.148438 C 16.496094 25.070312 16.269531 24.964844 16.035156 24.871094 C 16.039062 24.859375 16.042969 24.847656 16.050781 24.835938 C 16.328125 24.875 16.609375 24.917969 16.890625 24.960938 C 17.941406 25.109375 18.996094 25.199219 20.054688 25.222656 C 20.238281 25.226562 20.398438 25.285156 20.5625 25.347656 C 21.308594 25.613281 22.074219 25.785156 22.871094 25.8125 C 22.878906 25.8125 22.882812 25.816406 22.890625 25.820312 C 22.804688 26.097656 22.570312 26.167969 22.328125 26.230469 Z M 11.710938 23.863281 C 10.371094 23.59375 9.085938 23.28125 8.128906 22.238281 C 9.25 22.308594 11.214844 23.199219 11.710938 23.863281 Z M 7.488281 21.570312 C 6.90625 21.238281 6.554688 20.789062 6.5 20.105469 C 7.046875 20.453125 7.328125 20.949219 7.488281 21.570312 Z M 27.449219 16.644531 C 27.492188 16.992188 27.597656 17.332031 27.683594 17.671875 C 27.777344 18.046875 27.890625 18.417969 27.976562 18.792969 C 28.007812 18.914062 27.996094 19.050781 27.996094 19.179688 C 28.003906 19.753906 28.015625 20.328125 28.011719 20.898438 C 28.007812 21.519531 27.984375 22.136719 27.714844 22.714844 C 27.386719 23.414062 26.953125 24.03125 26.292969 24.460938 C 25.765625 24.808594 25.171875 25.011719 24.554688 25.117188 C 24.136719 25.191406 23.714844 25.222656 23.292969 25.273438 C 22.429688 25.234375 21.601562 25.085938 20.820312 24.703125 C 20.070312 24.335938 19.625 23.730469 19.476562 22.925781 C 19.269531 21.789062 19.371094 20.679688 19.859375 19.621094 C 20.042969 19.21875 20.214844 18.804688 20.386719 18.398438 C 20.523438 18.082031 20.589844 17.75 20.632812 17.410156 C 20.726562 16.65625 20.660156 15.90625 20.621094 15.15625 C 20.605469 14.90625 20.484375 14.664062 20.410156 14.417969 C 20.339844 14.179688 20.257812 13.941406 20.207031 13.695312 C 20.148438 13.410156 20.261719 13.144531 20.355469 12.878906 C 20.617188 12.140625 20.960938 11.449219 21.4375 10.824219 C 21.992188 10.097656 22.679688 9.535156 23.527344 9.191406 C 23.769531 9.089844 24.058594 9.0625 24.328125 9.058594 C 25.496094 9.027344 26.566406 9.335938 27.496094 10.0625 C 27.976562 10.4375 28.332031 10.90625 28.445312 11.519531 C 28.566406 12.171875 28.546875 12.820312 28.335938 13.453125 C 28.125 14.070312 27.894531 14.683594 27.679688 15.300781 C 27.53125 15.734375 27.390625 16.179688 27.449219 16.644531 Z M 6.960938 8.890625 C 6.578125 9.351562 6.191406 9.777344 6.039062 10.359375 C 6.320312 10.203125 6.585938 10.035156 6.84375 9.863281 C 7.125 9.675781 7.417969 9.523438 7.757812 9.488281 C 7.964844 9.46875 8.15625 9.484375 8.347656 9.601562 C 8.574219 9.742188 8.820312 9.859375 9.066406 9.957031 C 10 10.324219 10.972656 10.445312 11.96875 10.40625 C 12.230469 10.394531 12.503906 10.386719 12.75 10.308594 C 13.320312 10.136719 13.835938 9.839844 14.292969 9.460938 C 14.953125 8.910156 15.277344 8.21875 15.199219 7.351562 C 15.160156 6.90625 15.011719 6.492188 14.832031 6.089844 C 14.691406 5.773438 14.496094 5.523438 14.183594 5.363281 C 14.046875 5.292969 13.917969 5.199219 13.796875 5.105469 C 13.691406 5.019531 13.617188 4.910156 13.613281 4.753906 C 13.683594 4.746094 13.746094 4.734375 13.808594 4.722656 C 14.574219 4.621094 15.339844 4.625 16.109375 4.644531 C 16.992188 4.667969 17.878906 4.703125 18.753906 4.574219 C 18.996094 4.539062 19.238281 4.488281 19.480469 4.441406 C 19.476562 4.429688 19.476562 4.414062 19.476562 4.402344 C 18.949219 4.304688 18.421875 4.332031 17.890625 4.355469 C 17.382812 4.375 16.875 4.414062 16.367188 4.390625 C 15.667969 4.355469 14.972656 4.339844 14.277344 4.390625 C 13.726562 4.429688 13.179688 4.492188 12.628906 4.511719 C 11.90625 4.539062 11.183594 4.53125 10.464844 4.550781 C 10.019531 4.5625 9.582031 4.632812 9.183594 4.835938 C 8.570312 5.144531 8.042969 5.574219 7.574219 6.070312 C 7.265625 6.394531 7.0625 6.773438 7.097656 7.242188 C 7.101562 7.273438 7.085938 7.308594 7.070312 7.335938 C 6.960938 7.519531 6.855469 7.707031 6.738281 7.886719 C 6.71875 7.921875 6.664062 7.953125 6.621094 7.957031 C 6.460938 7.964844 6.292969 7.964844 6.132812 7.964844 C 5.980469 7.96875 5.832031 7.964844 5.660156 7.964844 C 5.742188 8.144531 5.804688 8.289062 5.875 8.4375 C 5.34375 8.617188 4.835938 8.808594 4.410156 9.15625 L 4.421875 9.203125 C 5.257812 9.101562 6.097656 8.996094 6.960938 8.890625 Z M 7.722656 7.476562 C 7.855469 6.726562 8.300781 6.1875 8.90625 5.761719 C 9.253906 5.515625 9.628906 5.308594 10.050781 5.242188 C 10.476562 5.179688 10.910156 5.152344 11.339844 5.148438 C 11.984375 5.144531 12.601562 5.28125 13.210938 5.496094 C 13.722656 5.675781 14.003906 6.046875 14.191406 6.519531 C 14.246094 6.664062 14.285156 6.816406 14.308594 6.96875 C 14.34375 7.214844 14.363281 7.460938 14.386719 7.707031 C 14.421875 8.511719 13.964844 9 13.328125 9.351562 C 12.605469 9.757812 11.824219 9.898438 11 9.785156 C 10.351562 9.695312 9.710938 9.582031 9.097656 9.347656 C 8.738281 9.210938 8.402344 9.039062 8.121094 8.769531 C 7.742188 8.410156 7.636719 7.96875 7.722656 7.476562 Z M 9.058594 8.96875 C 9.300781 8.996094 9.554688 9.019531 9.792969 8.988281 C 10.429688 8.898438 10.949219 8.585938 11.347656 8.074219 C 11.472656 7.914062 11.46875 7.894531 11.324219 7.742188 C 11.027344 7.433594 10.644531 7.328125 10.242188 7.277344 C 9.824219 7.222656 9.410156 7.273438 9 7.332031 C 8.964844 7.335938 8.90625 7.359375 8.898438 7.386719 C 8.796875 7.6875 8.667969 7.980469 8.644531 8.308594 C 8.671875 8.417969 8.679688 8.535156 8.722656 8.636719 C 8.789062 8.785156 8.878906 8.945312 9.058594 8.96875 Z M 13.265625 12.34375 C 13.269531 12.40625 13.28125 12.476562 13.3125 12.527344 C 13.34375 12.578125 13.394531 12.636719 13.449219 12.652344 C 14.761719 13.007812 16.09375 13.226562 17.460938 13.183594 C 17.660156 13.175781 17.878906 13.136719 18.054688 13.046875 C 18.359375 12.894531 18.640625 12.695312 18.933594 12.515625 C 18.929688 12.503906 18.925781 12.488281 18.917969 12.476562 C 17.492188 12.695312 16.0625 12.8125 14.640625 12.445312 C 14.679688 12.441406 14.71875 12.4375 14.757812 12.4375 C 15.46875 12.386719 16.175781 12.347656 16.882812 12.28125 C 17.527344 12.21875 18.152344 12.066406 18.722656 11.75 C 18.820312 11.695312 18.910156 11.632812 19.003906 11.570312 C 18.996094 11.5625 18.992188 11.550781 18.988281 11.539062 C 17.09375 11.683594 15.207031 12.003906 13.265625 11.757812 C 13.265625 11.96875 13.261719 12.15625 13.265625 12.34375 Z M 13.164062 13.527344 C 13.15625 13.539062 13.152344 13.554688 13.144531 13.570312 C 13.339844 13.710938 13.527344 13.863281 13.730469 13.992188 C 13.816406 14.046875 13.929688 14.070312 14.03125 14.078125 C 14.328125 14.101562 14.628906 14.121094 14.925781 14.125 C 15.675781 14.132812 16.421875 14.132812 17.171875 14.132812 C 17.695312 14.132812 18.222656 14.128906 18.75 14.125 C 18.789062 14.125 18.855469 14.09375 18.859375 14.066406 C 18.878906 13.976562 18.875 13.878906 18.882812 13.769531 C 16.960938 13.800781 15.0625 13.71875 13.164062 13.527344 Z M 17.09375 20.230469 C 16.476562 19.796875 15.8125 19.441406 15.125 19.132812 C 14.628906 18.914062 14.101562 18.941406 13.574219 18.96875 C 13.425781 18.976562 13.277344 18.988281 13.125 19 C 13.230469 19.074219 13.339844 19.125 13.453125 19.160156 C 13.820312 19.269531 14.183594 19.378906 14.554688 19.472656 C 15.265625 19.65625 15.867188 20.046875 16.453125 20.464844 C 16.847656 20.746094 17.242188 21.03125 17.714844 21.164062 C 17.933594 21.226562 18.167969 21.253906 18.394531 21.296875 C 18.40625 21.277344 18.417969 21.253906 18.429688 21.230469 C 18.390625 21.203125 18.347656 21.179688 18.308594 21.152344 C 17.902344 20.84375 17.511719 20.519531 17.09375 20.230469 Z M 17.09375 20.230469 " fill-opacity="1" fill-rule="nonzero"/></g></svg>