<svg xmlns="http://www.w3.org/2000/svg" xmlns:xlink="http://www.w3.org/1999/xlink" width="40" zoomAndPan="magnify" viewBox="0 0 30 30.000001" height="40" preserveAspectRatio="xMidYMid meet" version="1.0"><defs><clipPath id="089325ee59"><path d="M 0.484375 4.699219 L 29.515625 4.699219 L 29.515625 24.292969 L 0.484375 24.292969 Z M 0.484375 4.699219 " clip-rule="nonzero"/></clipPath><clipPath id="65922cbdc6"><path d="M 8.710938 4.820312 L 9.96875 5.582031 C 10.191406 5.71875 10.242188 6.015625 10.078125 6.21875 C 8.238281 8.480469 6.570312 10.933594 6.570312 13.96875 C 9.078125 13.96875 11.667969 16.035156 11.667969 18.679688 C 11.667969 22.371094 8.691406 24.671875 5.71875 24.242188 C 2.746094 23.816406 0.984375 21.675781 0.621094 19.105469 C -0.214844 13.21875 3.039062 7.914062 7.828125 4.828125 C 8.097656 4.65625 8.4375 4.65625 8.710938 4.820312 Z M 26.554688 4.820312 L 27.8125 5.582031 C 28.035156 5.71875 28.085938 6.015625 27.921875 6.21875 C 26.082031 8.480469 24.410156 10.933594 24.410156 13.96875 C 26.921875 13.96875 29.507812 16.035156 29.507812 18.679688 C 29.507812 22.371094 26.535156 24.671875 23.5625 24.242188 C 20.589844 23.816406 18.828125 21.675781 18.464844 19.105469 C 17.628906 13.21875 20.882812 7.914062 25.671875 4.828125 C 25.941406 4.65625 26.28125 4.65625 26.554688 4.820312 Z M 26.554688 4.820312 " clip-rule="evenodd"/></clipPath></defs><g clip-path="url(#089325ee59)"><g clip-path="url(#65922cbdc6)"><path fill="#12f7ff" d="M 0.484375 4.699219 L 0.484375 24.292969 L 29.507812 24.292969 L 29.507812 4.699219 Z M 0.484375 4.699219 " fill-opacity="1" fill-rule="nonzero"/></g></g></svg>