<svg xmlns="http://www.w3.org/2000/svg" xmlns:xlink="http://www.w3.org/1999/xlink" width="40" zoomAndPan="magnify" viewBox="0 0 30 30.000001" height="40" preserveAspectRatio="xMidYMid meet" version="1.0"><defs><clipPath id="f18e5deb38"><path d="M 0.484375 0.691406 L 28 0.691406 L 28 27 L 0.484375 27 Z M 0.484375 0.691406 " clip-rule="nonzero"/></clipPath><clipPath id="5f096050e1"><path d="M 17 10 L 29.515625 10 L 29.515625 28.269531 L 17 28.269531 Z M 17 10 " clip-rule="nonzero"/></clipPath></defs><g clip-path="url(#f18e5deb38)"><path fill="#12f7ff" d="M 15.101562 24.761719 L 6.691406 24.761719 L 6.691406 2.066406 L 21.171875 2.066406 L 21.171875 11.527344 C 21.171875 11.71875 21.238281 11.882812 21.371094 12.015625 C 21.507812 12.148438 21.671875 12.21875 21.859375 12.21875 C 22.050781 12.21875 22.214844 12.148438 22.347656 12.015625 C 22.484375 11.882812 22.550781 11.71875 22.550781 11.527344 L 22.550781 6.878906 L 25.996094 6.878906 L 25.996094 8.523438 C 25.996094 8.714844 26.066406 8.875 26.199219 9.011719 C 26.335938 9.144531 26.496094 9.210938 26.6875 9.210938 C 26.878906 9.210938 27.039062 9.144531 27.175781 9.011719 C 27.308594 8.875 27.375 8.714844 27.375 8.523438 L 27.375 4.128906 C 27.375 3.671875 27.289062 3.234375 27.113281 2.8125 C 26.9375 2.390625 26.6875 2.019531 26.367188 1.699219 C 26.042969 1.375 25.667969 1.128906 25.246094 0.953125 C 24.824219 0.777344 24.386719 0.691406 23.929688 0.691406 L 3.933594 0.691406 C 3.476562 0.691406 3.035156 0.777344 2.613281 0.953125 C 2.191406 1.128906 1.820312 1.375 1.496094 1.699219 C 1.175781 2.019531 0.925781 2.390625 0.75 2.8125 C 0.574219 3.234375 0.488281 3.671875 0.484375 4.128906 L 0.484375 22.699219 C 0.488281 23.15625 0.574219 23.59375 0.75 24.015625 C 0.925781 24.433594 1.175781 24.808594 1.496094 25.128906 C 1.820312 25.453125 2.191406 25.699219 2.613281 25.875 C 3.035156 26.050781 3.476562 26.136719 3.933594 26.136719 L 15.101562 26.136719 C 15.292969 26.136719 15.457031 26.070312 15.589844 25.9375 C 15.726562 25.800781 15.792969 25.640625 15.792969 25.449219 C 15.792969 25.261719 15.726562 25.097656 15.589844 24.964844 C 15.457031 24.828125 15.292969 24.761719 15.101562 24.761719 Z M 23.929688 2.066406 C 24.203125 2.066406 24.46875 2.117188 24.71875 2.222656 C 24.972656 2.328125 25.199219 2.476562 25.390625 2.667969 C 25.585938 2.863281 25.734375 3.085938 25.839844 3.339844 C 25.945312 3.589844 25.996094 3.855469 25.996094 4.128906 L 25.996094 5.503906 L 22.550781 5.503906 L 22.550781 2.066406 Z M 1.863281 11.695312 L 5.3125 11.695312 L 5.3125 15.132812 L 1.863281 15.132812 Z M 5.3125 10.320312 L 1.863281 10.320312 L 1.863281 6.878906 L 5.3125 6.878906 Z M 1.863281 16.507812 L 5.3125 16.507812 L 5.3125 19.949219 L 1.863281 19.949219 Z M 1.863281 4.128906 C 1.863281 3.855469 1.917969 3.589844 2.023438 3.339844 C 2.128906 3.085938 2.277344 2.863281 2.472656 2.667969 C 2.664062 2.476562 2.886719 2.328125 3.140625 2.222656 C 3.394531 2.117188 3.660156 2.066406 3.933594 2.066406 L 5.3125 2.066406 L 5.3125 5.503906 L 1.863281 5.503906 Z M 3.933594 24.761719 C 3.660156 24.761719 3.394531 24.710938 3.140625 24.605469 C 2.886719 24.5 2.664062 24.351562 2.472656 24.15625 C 2.277344 23.964844 2.128906 23.742188 2.023438 23.488281 C 1.917969 23.234375 1.863281 22.972656 1.863281 22.699219 L 1.863281 21.324219 L 5.3125 21.324219 L 5.3125 24.761719 Z M 3.933594 24.761719 " fill-opacity="1" fill-rule="nonzero"/></g><path fill="#12f7ff" d="M 26.6875 21.757812 C 26.496094 21.757812 26.335938 21.824219 26.199219 21.957031 C 26.066406 22.09375 25.996094 22.253906 25.996094 22.445312 L 25.996094 22.699219 C 26 23.089844 25.898438 23.449219 25.691406 23.78125 C 25.488281 24.113281 25.210938 24.363281 24.859375 24.539062 C 24.703125 24.597656 24.582031 24.699219 24.5 24.84375 C 24.417969 24.988281 24.390625 25.144531 24.421875 25.308594 C 24.453125 25.472656 24.535156 25.605469 24.664062 25.714844 C 24.792969 25.820312 24.941406 25.871094 25.109375 25.871094 C 25.210938 25.871094 25.308594 25.847656 25.402344 25.804688 C 26.007812 25.523438 26.488281 25.101562 26.847656 24.539062 C 27.203125 23.980469 27.378906 23.363281 27.375 22.699219 L 27.375 22.445312 C 27.375 22.253906 27.308594 22.09375 27.175781 21.957031 C 27.039062 21.824219 26.878906 21.757812 26.6875 21.757812 Z M 26.6875 21.757812 " fill-opacity="1" fill-rule="nonzero"/><path fill="#12f7ff" d="M 12.550781 8.617188 C 12.230469 8.433594 11.886719 8.339844 11.519531 8.339844 C 11.148438 8.339844 10.804688 8.433594 10.484375 8.617188 C 10.164062 8.800781 9.910156 9.054688 9.726562 9.375 C 9.542969 9.691406 9.449219 10.039062 9.449219 10.40625 L 9.449219 17.113281 C 9.449219 17.480469 9.539062 17.824219 9.722656 18.144531 C 9.910156 18.464844 10.160156 18.71875 10.480469 18.902344 C 10.800781 19.089844 11.148438 19.179688 11.515625 19.179688 C 11.886719 19.179688 12.230469 19.085938 12.550781 18.898438 L 18.375 15.546875 C 18.695312 15.363281 18.945312 15.109375 19.132812 14.789062 C 19.316406 14.472656 19.410156 14.125 19.410156 13.757812 C 19.410156 13.386719 19.316406 13.042969 19.132812 12.726562 C 18.945312 12.40625 18.695312 12.152344 18.375 11.96875 Z M 17.683594 14.351562 L 11.863281 17.707031 C 11.757812 17.765625 11.640625 17.796875 11.519531 17.796875 C 11.394531 17.796875 11.28125 17.765625 11.171875 17.707031 C 11.066406 17.644531 10.984375 17.5625 10.921875 17.453125 C 10.859375 17.347656 10.828125 17.234375 10.828125 17.109375 L 10.828125 10.40625 C 10.824219 10.136719 10.941406 9.941406 11.171875 9.808594 C 11.28125 9.746094 11.394531 9.714844 11.519531 9.714844 C 11.640625 9.714844 11.757812 9.746094 11.863281 9.808594 L 17.683594 13.160156 C 17.789062 13.222656 17.875 13.308594 17.9375 13.414062 C 18 13.519531 18.027344 13.636719 18.027344 13.757812 C 18.027344 13.878906 18 13.996094 17.9375 14.101562 C 17.875 14.207031 17.789062 14.292969 17.683594 14.351562 Z M 17.683594 14.351562 " fill-opacity="1" fill-rule="nonzero"/><g clip-path="url(#5f096050e1)"><path fill="#12f7ff" d="M 29.398438 12.828125 C 29.300781 12.460938 29.085938 12.179688 28.753906 11.992188 L 26.367188 10.617188 C 26.207031 10.523438 26.039062 10.46875 25.859375 10.445312 C 25.675781 10.421875 25.496094 10.429688 25.320312 10.480469 C 25.144531 10.527344 24.984375 10.605469 24.839844 10.714844 C 24.691406 10.828125 24.574219 10.960938 24.484375 11.121094 L 17.53125 23.132812 C 17.273438 23.574219 17.152344 24.046875 17.160156 24.554688 L 17.199219 26.847656 C 17.203125 26.964844 17.21875 27.082031 17.25 27.199219 C 17.28125 27.3125 17.328125 27.421875 17.390625 27.523438 C 17.449219 27.625 17.523438 27.71875 17.605469 27.800781 C 17.691406 27.886719 17.785156 27.957031 17.890625 28.015625 C 17.992188 28.074219 18.101562 28.121094 18.214844 28.152344 C 18.332031 28.183594 18.449219 28.199219 18.566406 28.199219 C 18.683594 28.199219 18.800781 28.1875 18.917969 28.15625 C 19.035156 28.128906 19.144531 28.085938 19.246094 28.027344 L 21.257812 26.914062 C 21.703125 26.667969 22.050781 26.324219 22.304688 25.882812 L 29.257812 13.871094 C 29.453125 13.542969 29.496094 13.195312 29.398438 12.828125 Z M 21.113281 25.195312 C 20.984375 25.417969 20.808594 25.589844 20.585938 25.710938 L 18.578125 26.824219 L 18.539062 24.535156 C 18.535156 24.28125 18.597656 24.042969 18.722656 23.820312 L 25.675781 11.808594 L 28.066406 13.183594 Z M 21.113281 25.195312 " fill-opacity="1" fill-rule="nonzero"/></g></svg>