<svg xmlns="http://www.w3.org/2000/svg" xmlns:xlink="http://www.w3.org/1999/xlink" width="40" zoomAndPan="magnify" viewBox="0 0 30 30.000001" height="40" preserveAspectRatio="xMidYMid meet" version="1.0"><defs><filter x="0%" y="0%" width="100%" height="100%" id="688bd7ca71"><feColorMatrix values="0 0 0 0 1 0 0 0 0 1 0 0 0 0 1 0 0 0 1 0" color-interpolation-filters="sRGB"/></filter><clipPath id="781b6e57f5"><path d="M 0.484375 0 L 29.515625 0 L 29.515625 29 L 0.484375 29 Z M 0.484375 0 " clip-rule="nonzero"/></clipPath><mask id="5185212c5a"><g filter="url(#688bd7ca71)"><rect x="-3" width="36" fill="#000000" y="-3" height="36.000001" fill-opacity="0.149"/></g></mask><clipPath id="ca7a68b7d8"><path d="M 1 0.464844 L 29 0.464844 L 29 28.566406 L 1 28.566406 Z M 1 0.464844 " clip-rule="nonzero"/></clipPath><clipPath id="8bb4a79b9d"><path d="M 28.574219 13.695312 C 28.421875 13.632812 28.25 13.667969 28.132812 13.785156 L 26.917969 15.003906 L 26.917969 6.714844 C 26.917969 6.488281 26.734375 6.304688 26.511719 6.304688 L 23.394531 6.304688 L 24.523438 5.171875 L 24.523438 5.167969 L 25.617188 4.074219 C 25.847656 3.839844 25.976562 3.53125 25.976562 3.199219 C 25.976562 2.867188 25.847656 2.554688 25.617188 2.320312 L 24.355469 1.054688 C 24.121094 0.820312 23.808594 0.691406 23.480469 0.691406 C 23.148438 0.691406 22.839844 0.820312 22.605469 1.054688 L 21.511719 2.148438 L 20.195312 3.472656 L 17.371094 6.304688 L 4.773438 6.304688 L 4.773438 2.277344 C 4.773438 2.054688 4.589844 1.871094 4.367188 1.871094 C 2.605469 1.871094 1.175781 3.308594 1.175781 5.074219 L 1.175781 22.367188 C 1.175781 22.394531 1.179688 22.425781 1.183594 22.453125 C 1.242188 23.203125 1.5625 23.898438 2.105469 24.425781 C 2.679688 24.992188 3.441406 25.304688 4.25 25.304688 L 16.652344 25.304688 L 14.316406 27.644531 C 14.199219 27.761719 14.164062 27.9375 14.226562 28.089844 C 14.289062 28.242188 14.4375 28.339844 14.601562 28.339844 L 28.417969 28.339844 C 28.644531 28.339844 28.824219 28.160156 28.824219 27.933594 L 28.824219 14.074219 C 28.824219 13.90625 28.726562 13.757812 28.574219 13.695312 Z M 23.179688 1.628906 C 23.34375 1.464844 23.613281 1.464844 23.78125 1.628906 L 25.042969 2.894531 C 25.207031 3.0625 25.207031 3.332031 25.042969 3.5 L 24.238281 4.308594 L 22.375 2.4375 Z M 21.800781 3.011719 L 23.664062 4.882812 L 22.917969 5.628906 L 21.054688 3.761719 Z M 13.199219 15.042969 L 12.039062 15.453125 L 11.261719 14.675781 L 11.675781 13.511719 Z M 25.25 20.855469 L 21.339844 24.765625 C 21.296875 24.808594 21.328125 24.886719 21.386719 24.886719 L 25.367188 24.886719 L 25.367188 20.902344 C 25.367188 20.84375 25.292969 20.8125 25.25 20.855469 Z M 11.542969 12.789062 L 13.964844 15.207031 L 22.949219 6.222656 L 20.53125 3.800781 Z M 11.542969 12.789062 " clip-rule="evenodd"/></clipPath><clipPath id="2129ff56b8"><rect x="0" width="30" y="0" height="29"/></clipPath><clipPath id="a19d4768e7"><path d="M 20 20 L 26 20 L 26 26 L 20 26 Z M 20 20 " clip-rule="nonzero"/></clipPath><clipPath id="74cd6ddc9a"><path d="M 25.644531 20.222656 C 25.492188 20.160156 25.320312 20.195312 25.203125 20.308594 L 20.769531 24.761719 C 20.652344 24.875 20.617188 25.050781 20.679688 25.203125 C 20.742188 25.355469 20.890625 25.453125 21.054688 25.453125 L 25.488281 25.453125 C 25.714844 25.453125 25.894531 25.273438 25.894531 25.046875 L 25.894531 20.597656 C 25.894531 20.433594 25.796875 20.285156 25.644531 20.222656 Z M 22.035156 24.640625 L 25.082031 21.582031 L 25.082031 24.640625 Z M 22.035156 24.640625 " clip-rule="nonzero"/></clipPath><clipPath id="38ea91e08f"><path d="M 1 0 L 29 0 L 29 29 L 1 29 Z M 1 0 " clip-rule="nonzero"/></clipPath><clipPath id="7f90ab9a55"><path d="M 28.574219 13.695312 C 28.421875 13.632812 28.25 13.667969 28.132812 13.785156 L 26.917969 15.003906 L 26.917969 6.714844 C 26.917969 6.488281 26.734375 6.304688 26.511719 6.304688 L 23.394531 6.304688 L 24.523438 5.171875 C 24.523438 5.171875 24.523438 5.171875 24.523438 5.167969 L 25.617188 4.074219 C 25.847656 3.839844 25.976562 3.53125 25.976562 3.199219 C 25.976562 2.867188 25.847656 2.554688 25.617188 2.320312 L 24.355469 1.054688 C 24.121094 0.820312 23.808594 0.691406 23.480469 0.691406 C 23.148438 0.691406 22.839844 0.820312 22.605469 1.054688 L 21.511719 2.148438 L 20.195312 3.472656 L 17.371094 6.304688 L 4.773438 6.304688 L 4.773438 2.277344 C 4.773438 2.054688 4.589844 1.871094 4.367188 1.871094 C 2.605469 1.871094 1.175781 3.308594 1.175781 5.074219 L 1.175781 22.367188 C 1.175781 22.394531 1.179688 22.425781 1.183594 22.453125 C 1.242188 23.203125 1.5625 23.898438 2.105469 24.425781 C 2.679688 24.992188 3.441406 25.304688 4.25 25.304688 L 16.652344 25.304688 L 14.316406 27.644531 C 14.199219 27.761719 14.164062 27.9375 14.226562 28.089844 C 14.289062 28.242188 14.4375 28.339844 14.601562 28.339844 L 28.417969 28.339844 C 28.644531 28.339844 28.824219 28.160156 28.824219 27.933594 L 28.824219 14.074219 C 28.824219 13.90625 28.726562 13.757812 28.574219 13.695312 Z M 23.179688 1.628906 C 23.34375 1.464844 23.613281 1.464844 23.78125 1.628906 L 25.042969 2.894531 C 25.207031 3.0625 25.207031 3.332031 25.042969 3.5 L 24.238281 4.308594 L 22.375 2.4375 Z M 21.800781 3.011719 L 23.664062 4.882812 L 22.917969 5.628906 L 21.054688 3.761719 Z M 28.011719 18.648438 L 27.265625 18.648438 C 27.039062 18.648438 26.859375 18.828125 26.859375 19.054688 C 26.859375 19.28125 27.039062 19.460938 27.265625 19.460938 L 28.011719 19.460938 L 28.011719 20.6875 L 27.265625 20.6875 C 27.039062 20.6875 26.859375 20.871094 26.859375 21.09375 C 26.859375 21.320312 27.039062 21.503906 27.265625 21.503906 L 28.011719 21.503906 L 28.011719 22.730469 L 27.265625 22.730469 C 27.039062 22.730469 26.859375 22.910156 26.859375 23.136719 C 26.859375 23.363281 27.039062 23.542969 27.265625 23.542969 L 28.011719 23.542969 L 28.011719 24.769531 L 27.265625 24.769531 C 27.039062 24.769531 26.859375 24.953125 26.859375 25.179688 C 26.859375 25.402344 27.039062 25.585938 27.265625 25.585938 L 28.011719 25.585938 L 28.011719 27.527344 L 15.582031 27.527344 L 19.679688 23.414062 C 19.839844 23.253906 19.839844 22.996094 19.679688 22.839844 C 19.664062 22.820312 19.644531 22.804688 19.621094 22.789062 C 19.464844 22.683594 19.246094 22.699219 19.105469 22.839844 L 17.460938 24.488281 L 4.25 24.488281 C 3.019531 24.488281 2.027344 23.523438 1.988281 22.292969 C 1.992188 22.214844 1.996094 22.136719 2.007812 22.0625 C 2.011719 22.023438 2.015625 21.988281 2.023438 21.953125 C 2.023438 21.949219 2.023438 21.945312 2.023438 21.941406 C 2.03125 21.910156 2.039062 21.878906 2.042969 21.847656 C 2.046875 21.835938 2.046875 21.828125 2.050781 21.820312 C 2.054688 21.792969 2.0625 21.765625 2.070312 21.742188 C 2.074219 21.726562 2.078125 21.710938 2.082031 21.699219 C 2.089844 21.675781 2.09375 21.65625 2.101562 21.636719 C 2.109375 21.617188 2.113281 21.59375 2.121094 21.574219 C 2.125 21.5625 2.132812 21.546875 2.136719 21.53125 C 2.144531 21.507812 2.15625 21.480469 2.167969 21.453125 C 2.171875 21.445312 2.171875 21.4375 2.175781 21.429688 C 2.191406 21.398438 2.207031 21.367188 2.21875 21.335938 C 2.222656 21.332031 2.222656 21.332031 2.222656 21.332031 C 2.539062 20.671875 3.148438 20.179688 3.882812 20.027344 C 3.886719 20.027344 3.886719 20.027344 3.890625 20.027344 C 3.921875 20.019531 3.957031 20.011719 3.992188 20.007812 C 3.996094 20.007812 4.003906 20.003906 4.007812 20.003906 C 4.039062 20 4.070312 19.996094 4.101562 19.992188 C 4.109375 19.992188 4.117188 19.992188 4.128906 19.988281 C 4.15625 19.988281 4.1875 19.984375 4.21875 19.984375 C 4.226562 19.980469 4.238281 19.980469 4.246094 19.980469 C 4.285156 19.980469 4.328125 19.976562 4.367188 19.976562 C 4.589844 19.976562 4.773438 19.796875 4.773438 19.570312 L 4.773438 16.617188 C 4.773438 16.394531 4.589844 16.210938 4.367188 16.210938 C 4.144531 16.210938 3.960938 16.394531 3.960938 16.617188 L 3.960938 19.1875 C 3.277344 19.277344 2.640625 19.582031 2.136719 20.074219 C 2.085938 20.125 2.035156 20.179688 1.988281 20.234375 L 1.988281 5.074219 C 1.988281 3.894531 2.839844 2.914062 3.960938 2.71875 L 3.960938 14.988281 C 3.960938 15.214844 4.144531 15.398438 4.367188 15.398438 C 4.589844 15.398438 4.773438 15.214844 4.773438 14.988281 L 4.773438 7.121094 L 16.558594 7.121094 L 14.316406 9.371094 C 14.15625 9.53125 14.15625 9.789062 14.316406 9.945312 C 14.472656 10.105469 14.730469 10.105469 14.890625 9.945312 L 17.824219 7 L 20.480469 4.335938 L 22.34375 6.207031 L 22.125 6.425781 L 13.941406 14.632812 L 12.078125 12.765625 L 13.691406 11.148438 C 13.851562 10.988281 13.851562 10.730469 13.691406 10.570312 C 13.535156 10.414062 13.277344 10.414062 13.117188 10.570312 L 11.21875 12.476562 C 11.207031 12.488281 11.199219 12.5 11.191406 12.507812 C 11.1875 12.511719 11.183594 12.515625 11.179688 12.519531 C 11.175781 12.527344 11.171875 12.535156 11.164062 12.542969 C 11.160156 12.550781 11.160156 12.554688 11.15625 12.558594 C 11.152344 12.566406 11.148438 12.574219 11.144531 12.582031 C 11.140625 12.585938 11.140625 12.59375 11.136719 12.597656 C 11.132812 12.605469 11.128906 12.613281 11.125 12.621094 C 11.125 12.625 11.125 12.628906 11.121094 12.628906 L 10.332031 14.878906 L 9.792969 16.410156 C 9.785156 16.429688 9.78125 16.449219 9.777344 16.472656 L 8.425781 16.472656 C 8.203125 16.472656 8.023438 16.652344 8.023438 16.878906 C 8.023438 17.101562 8.203125 17.285156 8.425781 17.285156 L 19.667969 17.285156 C 19.890625 17.285156 20.070312 17.101562 20.070312 16.878906 C 20.070312 16.652344 19.890625 16.472656 19.667969 16.472656 L 11.601562 16.472656 L 14.078125 15.59375 C 14.078125 15.59375 14.082031 15.59375 14.082031 15.59375 C 14.09375 15.589844 14.101562 15.585938 14.113281 15.578125 C 14.117188 15.578125 14.121094 15.578125 14.125 15.574219 C 14.132812 15.570312 14.144531 15.566406 14.152344 15.558594 C 14.15625 15.558594 14.15625 15.554688 14.160156 15.554688 C 14.171875 15.546875 14.179688 15.539062 14.191406 15.53125 C 14.191406 15.53125 14.195312 15.53125 14.195312 15.527344 C 14.207031 15.519531 14.21875 15.507812 14.230469 15.5 L 22.582031 7.121094 L 26.105469 7.121094 L 26.105469 15.816406 L 20.300781 21.640625 C 20.140625 21.800781 20.140625 22.058594 20.300781 22.21875 C 20.308594 22.226562 20.320312 22.238281 20.332031 22.246094 C 20.40625 22.308594 20.496094 22.335938 20.585938 22.335938 C 20.675781 22.335938 20.769531 22.308594 20.84375 22.246094 C 20.855469 22.238281 20.863281 22.226562 20.875 22.21875 L 28.011719 15.054688 Z M 13.199219 15.042969 L 12.039062 15.453125 L 11.261719 14.675781 L 11.675781 13.511719 Z M 13.199219 15.042969 " clip-rule="nonzero"/></clipPath><clipPath id="eddafde8fa"><path d="M 0.484375 0 L 29.515625 0 L 29.515625 29.03125 L 0.484375 29.03125 Z M 0.484375 0 " clip-rule="nonzero"/></clipPath></defs><g clip-path="url(#781b6e57f5)"><g mask="url(#5185212c5a)"><g transform="matrix(1, 0, 0, 1, 0.000000000000000111, 0.000000000000005718)"><g clip-path="url(#2129ff56b8)"><g clip-path="url(#ca7a68b7d8)"><g clip-path="url(#8bb4a79b9d)"><path fill="#12f7ff" d="M 1.175781 0.691406 L 1.175781 28.339844 L 28.824219 28.339844 L 28.824219 0.691406 Z M 1.175781 0.691406 " fill-opacity="1" fill-rule="nonzero"/></g></g></g></g></g></g><g clip-path="url(#a19d4768e7)"><g clip-path="url(#74cd6ddc9a)"><path fill="#12f7ff" d="M 20.617188 20.160156 L 20.617188 25.453125 L 25.894531 25.453125 L 25.894531 20.160156 Z M 20.617188 20.160156 " fill-opacity="1" fill-rule="nonzero"/></g></g><path stroke-linecap="butt" transform="matrix(0.691244, 0, 0, 0.691244, 0.48387, 0.00000193548)" fill="none" stroke-linejoin="miter" d="M 36.399088 29.255439 C 36.178697 29.165022 35.930052 29.215882 35.76052 29.379762 L 29.346588 35.821949 C 29.177057 35.985829 29.126198 36.240126 29.216614 36.460517 C 29.307031 36.680907 29.521771 36.822183 29.759114 36.822183 L 36.173046 36.822183 C 36.500807 36.822183 36.760755 36.562236 36.760755 36.234475 L 36.760755 29.797939 C 36.760755 29.560595 36.619479 29.345856 36.399088 29.255439 Z M 31.177526 35.646767 L 35.585338 31.222001 L 35.585338 35.646767 Z M 31.177526 35.646767 " stroke="#12f7ff" stroke-width="0.25" stroke-opacity="1" stroke-miterlimit="4"/><g clip-path="url(#38ea91e08f)"><g clip-path="url(#7f90ab9a55)"><path fill="#12f7ff" d="M 1.175781 0.691406 L 1.175781 28.339844 L 28.824219 28.339844 L 28.824219 0.691406 Z M 1.175781 0.691406 " fill-opacity="1" fill-rule="nonzero"/></g></g><g clip-path="url(#eddafde8fa)"><path stroke-linecap="butt" transform="matrix(0.691244, 0, 0, 0.691244, 0.48387, 0.00000193548)" fill="none" stroke-linejoin="miter" d="M 40.637369 19.812549 C 40.416979 19.722132 40.168333 19.772991 39.998801 19.942523 L 38.241328 21.705648 L 38.241328 9.714138 C 38.241328 9.386377 37.975729 9.120778 37.653619 9.120778 L 33.144088 9.120778 L 34.777239 7.481976 C 34.777239 7.481976 34.777239 7.481976 34.777239 7.476325 L 36.359531 5.894033 C 36.692942 5.554971 36.879427 5.108539 36.879427 4.6282 C 36.879427 4.147862 36.692942 3.695778 36.359531 3.356716 L 34.534244 1.525778 C 34.195182 1.186716 33.743099 1.000232 33.268411 1.000232 C 32.788073 1.000232 32.34164 1.186716 32.002578 1.525778 L 30.420286 3.10807 L 28.515885 5.023773 L 24.430182 9.120778 L 6.205573 9.120778 L 6.205573 3.294554 C 6.205573 2.972445 5.939974 2.706846 5.617865 2.706846 C 3.069245 2.706846 1.000964 4.786429 1.000964 7.3407 L 1.000964 32.357861 C 1.000964 32.397418 1.006615 32.442626 1.012266 32.482184 C 1.097032 33.567184 1.560417 34.573069 2.345912 35.33596 C 3.176615 36.155361 4.278568 36.607444 5.448334 36.607444 L 23.390391 36.607444 L 20.011068 39.992418 C 19.841536 40.161949 19.790677 40.416246 19.881094 40.636636 C 19.97151 40.857027 20.18625 40.998303 20.423594 40.998303 L 40.411327 40.998303 C 40.739088 40.998303 40.999036 40.738355 40.999036 40.410595 L 40.999036 20.3607 C 40.999036 20.117705 40.85776 19.902965 40.637369 19.812549 Z M 32.833281 2.356481 C 33.070625 2.119138 33.460546 2.119138 33.703541 2.356481 L 35.528828 4.187419 C 35.766171 4.430414 35.766171 4.820336 35.528828 5.06333 L 34.364713 6.233096 L 31.669166 3.526247 Z M 30.838463 4.35695 L 33.53401 7.063799 L 32.454661 8.143148 L 29.759114 5.44195 Z M 39.823619 26.978069 L 38.74427 26.978069 C 38.41651 26.978069 38.156562 27.238017 38.156562 27.565778 C 38.156562 27.893538 38.41651 28.153486 38.74427 28.153486 L 39.823619 28.153486 L 39.823619 29.927913 L 38.74427 29.927913 C 38.41651 29.927913 38.156562 30.193512 38.156562 30.515621 C 38.156562 30.843382 38.41651 31.108981 38.74427 31.108981 L 39.823619 31.108981 L 39.823619 32.883408 L 38.74427 32.883408 C 38.41651 32.883408 38.156562 33.143355 38.156562 33.471116 C 38.156562 33.798876 38.41651 34.058824 38.74427 34.058824 L 39.823619 34.058824 L 39.823619 35.833251 L 38.74427 35.833251 C 38.41651 35.833251 38.156562 36.09885 38.156562 36.426611 C 38.156562 36.74872 38.41651 37.014319 38.74427 37.014319 L 39.823619 37.014319 L 39.823619 39.822887 L 21.842005 39.822887 L 27.769948 33.87234 C 28.00164 33.640647 28.00164 33.267678 27.769948 33.041637 C 27.747344 33.013382 27.719088 32.990777 27.685182 32.968173 C 27.45914 32.815595 27.142682 32.838199 26.939245 33.041637 L 24.560156 35.426376 L 5.448334 35.426376 C 3.668256 35.426376 2.232891 34.030569 2.176381 32.250491 C 2.182032 32.13747 2.187683 32.024449 2.204636 31.917079 C 2.210287 31.860569 2.215938 31.80971 2.22724 31.75885 C 2.22724 31.753199 2.22724 31.747548 2.22724 31.741897 C 2.238542 31.696689 2.249844 31.651481 2.255495 31.606272 C 2.261146 31.589319 2.261146 31.578017 2.266797 31.566715 C 2.272449 31.527158 2.283751 31.4876 2.295053 31.453694 C 2.300704 31.43109 2.306355 31.408486 2.312006 31.391533 C 2.323308 31.357626 2.328959 31.329371 2.340261 31.301116 C 2.351563 31.272861 2.357214 31.238954 2.368516 31.210699 C 2.374167 31.193746 2.385469 31.171142 2.39112 31.148538 C 2.402422 31.114632 2.419376 31.075074 2.436329 31.035517 C 2.44198 31.024215 2.44198 31.012913 2.447631 31.001611 C 2.470235 30.956402 2.492839 30.911194 2.509792 30.865986 C 2.515443 30.860335 2.515443 30.860335 2.515443 30.860335 C 2.973178 29.905309 3.85474 29.193277 4.917136 28.972887 C 4.922787 28.972887 4.922787 28.972887 4.928438 28.972887 C 4.973646 28.961585 5.024506 28.950283 5.075365 28.944632 C 5.081016 28.944632 5.092318 28.938981 5.097969 28.938981 C 5.143178 28.93333 5.188386 28.927679 5.233594 28.922027 C 5.244896 28.922027 5.256198 28.922027 5.273152 28.916376 C 5.312709 28.916376 5.357917 28.910725 5.403126 28.910725 C 5.414428 28.905074 5.431381 28.905074 5.442683 28.905074 C 5.499193 28.905074 5.561355 28.899423 5.617865 28.899423 C 5.939974 28.899423 6.205573 28.639475 6.205573 28.311715 L 6.205573 24.039528 C 6.205573 23.717418 5.939974 23.451819 5.617865 23.451819 C 5.295756 23.451819 5.030157 23.717418 5.030157 24.039528 L 5.030157 27.757913 C 4.041225 27.887887 3.120105 28.328668 2.39112 29.040699 C 2.317657 29.114163 2.244193 29.193277 2.176381 29.272392 L 2.176381 7.3407 C 2.176381 5.634086 3.408308 4.215674 5.030157 3.933122 L 5.030157 21.683043 C 5.030157 22.010804 5.295756 22.276403 5.617865 22.276403 C 5.939974 22.276403 6.205573 22.010804 6.205573 21.683043 L 6.205573 10.301846 L 23.254766 10.301846 L 20.011068 13.556846 C 19.779375 13.788538 19.779375 14.161507 20.011068 14.387549 C 20.237109 14.619242 20.610078 14.619242 20.841771 14.387549 L 25.085703 10.126664 L 28.928411 6.272653 L 31.623958 8.979502 L 31.3075 9.29596 L 19.468568 21.168799 L 16.773021 18.467601 L 19.106901 16.12807 C 19.338594 15.896377 19.338594 15.523408 19.106901 15.291715 C 18.880859 15.065674 18.507891 15.065674 18.276198 15.291715 L 15.529792 18.049424 C 15.512839 18.066377 15.501537 18.08333 15.490235 18.094632 C 15.484584 18.100283 15.478932 18.105934 15.473281 18.111585 C 15.46763 18.122887 15.461979 18.134189 15.450677 18.145491 C 15.445026 18.156793 15.445026 18.162445 15.439375 18.168096 C 15.433724 18.179398 15.428073 18.1907 15.422422 18.202002 C 15.416771 18.207653 15.416771 18.218955 15.41112 18.224606 C 15.405469 18.235908 15.399818 18.24721 15.394167 18.258512 C 15.394167 18.264163 15.394167 18.269814 15.388516 18.269814 L 14.247005 21.524814 L 13.467162 23.740022 C 13.45586 23.768278 13.450209 23.796533 13.444558 23.830439 L 11.489297 23.830439 C 11.167188 23.830439 10.90724 24.090387 10.90724 24.418147 C 10.90724 24.740257 11.167188 25.005856 11.489297 25.005856 L 27.752995 25.005856 C 28.075104 25.005856 28.335052 24.740257 28.335052 24.418147 C 28.335052 24.090387 28.075104 23.830439 27.752995 23.830439 L 16.083594 23.830439 L 19.666354 22.558955 C 19.666354 22.558955 19.672005 22.558955 19.672005 22.558955 C 19.688958 22.553304 19.70026 22.547653 19.717214 22.536351 C 19.722865 22.536351 19.728516 22.536351 19.734167 22.5307 C 19.745469 22.525049 19.762422 22.519397 19.773724 22.508095 C 19.779375 22.508095 19.779375 22.502444 19.785026 22.502444 C 19.801979 22.491142 19.813281 22.47984 19.830234 22.468538 C 19.830234 22.468538 19.835885 22.468538 19.835885 22.462887 C 19.852839 22.451585 19.869792 22.434632 19.886745 22.42333 L 31.968672 10.301846 L 37.065911 10.301846 L 37.065911 22.881064 L 28.668463 31.306767 C 28.436771 31.53846 28.436771 31.911428 28.668463 32.143121 C 28.679765 32.154423 28.696718 32.171376 28.713672 32.182678 C 28.821041 32.273095 28.951015 32.312652 29.080989 32.312652 C 29.210963 32.312652 29.346588 32.273095 29.453958 32.182678 C 29.470911 32.171376 29.482213 32.154423 29.499166 32.143121 L 39.823619 21.779111 Z M 18.39487 21.762158 L 16.716511 22.355517 L 15.591953 21.23096 L 16.190964 19.54695 Z M 18.39487 21.762158 " stroke="#12f7ff" stroke-width="0.25" stroke-opacity="1" stroke-miterlimit="4"/></g></svg>